<svg width="57" height="57" viewBox="0 0 57 57" fill="none" xmlns="http://www.w3.org/2000/svg">
<path d="M52.6154 40.1409C52.6154 51.8459 41.6997 57 28.2344 57C14.7691 57 3.85332 51.8459 3.85332 40.1409C1.4694 40.1409 -3.62352 32.5095 4.14655 32.5095C10.0299 32.5095 16.0592 32.5095 28.2344 32.5095C40.4096 32.5095 46.6556 32.5095 52.3222 32.5095C61.1759 32.5095 55.2161 40.1409 52.6154 40.1409Z" fill="white"/>
<circle cx="28.0666" cy="17.6635" r="2.27567" fill="white"/>
<path fill-rule="evenodd" clip-rule="evenodd" d="M47.8191 30.1255C49.8765 30.1255 51.2654 28.0902 50.0041 26.4648C46.0026 21.3085 37.7787 17.7719 28.2833 17.7719C18.7878 17.7719 10.5639 21.3085 6.56248 26.4648C5.30115 28.0902 6.69007 30.1255 8.74743 30.1255H47.8191ZM9.50138 26.589C10.9101 25.1803 14.7679 22.146 18.9291 21.2791C20.2295 21.0082 20.5546 22.2031 19.2542 22.5795C16.22 23.4578 12.8607 25.5054 10.6934 27.5643C9.50139 28.6967 8.52609 27.5643 9.50138 26.589Z" fill="white"/>
<path d="M29.0774 4.15399C29.0774 2.42015 27.6088 0.662231 26.8745 0C34.0191 3.61217 30.5063 7.94677 29.0774 9.81306C27.9343 11.3061 28.6011 13.2847 29.0774 14.0875C28.3431 13.646 26.8745 12.173 26.8745 9.81306C26.8745 6.86312 29.0774 6.32129 29.0774 4.15399Z" fill="white"/>
<path d="M23.9718 4.74803C23.9718 3.60102 23.0172 2.43809 22.5399 2C27.1839 4.38959 24.9006 7.25709 23.9718 8.49171C23.2288 9.47941 23.6622 10.7884 23.9718 11.3194C23.4945 11.0273 22.5399 10.0529 22.5399 8.49171C22.5399 6.54022 23.9718 6.18178 23.9718 4.74803Z" fill="white"/>
<path d="M34.1581 4.74803C34.1581 3.60102 33.2036 2.43809 32.7263 2C37.3702 4.38959 35.0869 7.25709 34.1581 8.49171C33.4151 9.47941 33.8485 10.7884 34.1581 11.3194C33.6808 11.0273 32.7263 10.0529 32.7263 8.49171C32.7263 6.54022 34.1581 6.18178 34.1581 4.74803Z" fill="white"/>
<path d="M33.5281 47.9562C33.5227 47.955 33.5172 47.9558 33.5124 47.9585C33.5076 47.9613 33.5039 47.9657 33.5021 47.971C33.3456 48.4451 32.7633 48.8761 32.5201 49.0394C32.4573 49.0827 31.8823 49.4581 31.3555 49.4975C31.3497 49.497 31.344 49.4988 31.3396 49.5026C31.3352 49.5064 31.3325 49.5119 31.332 49.5178C31.3315 49.5237 31.3333 49.5296 31.337 49.5342C31.3407 49.5387 31.346 49.5416 31.3517 49.5421C31.6227 49.6105 31.8425 49.6408 32.0285 49.6408C32.3544 49.6408 32.5769 49.5477 32.7899 49.4048C33.1483 49.1643 33.4137 48.8302 33.544 47.9818C33.5451 47.9762 33.5441 47.9704 33.5411 47.9657C33.5381 47.9609 33.5334 47.9575 33.5281 47.9562Z" fill="#C0C0C0"/>
<path d="M33.9408 44.3527C33.9359 44.3521 33.931 44.3532 33.9269 44.3559C33.9227 44.3587 33.9197 44.3628 33.9182 44.3677C33.5137 45.5475 32.3725 46.8032 31.5039 47.3878C31.1142 47.6493 30.5822 47.9073 30.0053 48.1037C29.9059 48.4068 29.8 48.7197 29.6876 49.0424C29.7085 49.0424 29.7284 49.0424 29.7489 49.0424C30.5277 49.0424 31.3053 48.7854 32.0633 48.2767C32.8863 47.7242 33.4565 47.0292 33.7579 46.2107C33.9736 45.625 34.0432 44.9926 33.9605 44.3718C33.9597 44.3668 33.9573 44.3622 33.9538 44.3588C33.9502 44.3554 33.9457 44.3532 33.9408 44.3527V44.3527Z" fill="#C0C0C0"/>
<path d="M34.2153 39.4887C34.2146 39.4834 34.2122 39.4784 34.2084 39.4747C34.2045 39.471 34.1996 39.4689 34.1943 39.4686C34.1891 39.4681 34.1839 39.4697 34.1798 39.473C34.1756 39.4763 34.1728 39.481 34.1719 39.4863C33.732 41.5249 32.4239 42.9652 31.0718 44.036C30.9361 44.7937 30.7366 45.6491 30.462 46.6123C30.5933 46.5338 30.7254 46.4499 30.8583 46.3607C34.2972 44.0537 34.3514 40.7864 34.2153 39.4887Z" fill="#C0C0C0"/>
<path d="M32.8344 39.9022C33.7634 38.7996 34.1084 37.9269 33.8055 37.445C33.4532 36.8843 32.2764 36.9397 30.5751 37.5966C30.5696 37.5981 30.5648 37.6019 30.562 37.607C30.5591 37.6122 30.5583 37.6183 30.5598 37.6241C30.5613 37.6298 30.565 37.6347 30.57 37.6377C30.575 37.6406 30.5809 37.6414 30.5864 37.6399C31.178 37.5368 31.5709 37.6117 31.7253 37.8564C31.9362 38.1921 31.6834 38.8131 31.0163 39.6046C30.9999 39.624 30.983 39.6435 30.9662 39.663C31.1547 40.1099 31.2804 40.6907 31.303 41.4417C31.8946 40.9224 32.4132 40.4019 32.8344 39.9022Z" fill="#C0C0C0"/>
<path d="M30.369 38.0861C30.1455 37.7302 29.3195 37.8404 28.2665 38.2982C28.8143 38.2088 29.6501 38.1984 30.3068 38.7442C30.4394 38.4695 30.4676 38.2415 30.369 38.0861Z" fill="#C0C0C0"/>
<path d="M28.4945 48.434C28.2811 48.453 28.0667 48.4546 27.8531 48.4387C27.8477 48.4369 27.8419 48.4374 27.8369 48.44C27.8319 48.4426 27.8281 48.4472 27.8264 48.4527C27.8246 48.4582 27.8251 48.4642 27.8276 48.4694C27.8301 48.4745 27.8345 48.4785 27.8399 48.4803C28.0112 48.5911 28.1916 48.6863 28.3791 48.7645C28.7514 48.9218 29.1465 49.0139 29.5481 49.0371C29.5949 49.0397 29.6416 49.0413 29.6882 49.0419C29.8009 48.7197 29.9068 48.4068 30.006 48.1031C29.5144 48.2703 28.9909 48.3926 28.4945 48.434Z" fill="#C0C0C0"/>
<path d="M29.9219 44.8695C29.7942 44.9553 29.6632 45.0412 29.5287 45.1274C27.8948 46.1754 25.7886 47.186 23.4357 46.6931C23.4306 46.6921 23.4253 46.693 23.4208 46.6955C23.4162 46.6981 23.4127 46.7022 23.4108 46.7072C23.4089 46.7122 23.4089 46.7177 23.4106 46.7228C23.4123 46.7278 23.4157 46.7321 23.4202 46.7349C24.0417 47.1085 25.2526 47.6835 26.815 47.6835C27.5094 47.6823 28.1994 47.5705 28.8609 47.3521C29.4197 47.1671 29.9571 46.9191 30.4633 46.6125C30.7379 45.6491 30.9373 44.794 31.0731 44.0363C30.686 44.3422 30.296 44.6184 29.9219 44.8695Z" fill="#C0C0C0"/>
<path d="M30.2293 40.4277C29.6428 40.9791 28.9345 41.5394 28.157 42.0614C26.9871 42.8466 25.8026 43.4504 24.824 43.7619C23.8524 44.0709 23.2012 44.0561 22.9903 43.7204C22.8365 43.4757 22.9306 43.0735 23.2626 42.5569C23.2662 42.5523 23.2679 42.5464 23.2673 42.5404C23.2668 42.5345 23.2639 42.5291 23.2594 42.5253C23.255 42.5215 23.2492 42.5198 23.2435 42.5204C23.2378 42.521 23.2325 42.5239 23.2289 42.5285C21.9557 43.8667 21.4274 44.9559 21.78 45.5162C21.9408 45.7719 22.2729 45.9002 22.7513 45.9002C23.1746 45.9002 23.7123 45.7998 24.347 45.5984C25.6912 45.1724 27.3141 44.3452 28.917 43.2694C29.3317 42.991 29.732 42.7046 30.1141 42.4138C30.5351 42.0934 30.9335 41.7678 31.3034 41.4422C31.2802 40.6912 31.1568 40.1103 30.9666 39.6635C30.7338 39.9313 30.4877 40.1864 30.2293 40.4277V40.4277Z" fill="#C0C0C0"/>
<path d="M28.2674 38.2983L28.2508 38.3054C27.6899 38.5511 27.0655 38.8945 26.4337 39.3186C25.5512 39.9101 24.7867 40.5682 24.2783 41.1707C23.7642 41.7806 23.5745 42.2644 23.7437 42.5346C23.8336 42.6779 24.0192 42.7496 24.286 42.7496C24.5198 42.7496 24.8162 42.6946 25.1658 42.5836C25.9056 42.3493 26.7996 41.8942 27.6794 41.3026C28.6907 40.6236 29.5116 39.8785 29.985 39.2556C30.1088 39.0971 30.2167 38.926 30.3072 38.7451C29.6509 38.1985 28.8151 38.2084 28.2674 38.2983ZM27.1092 40.3937C25.891 41.2112 24.7213 41.678 24.5537 41.4123C24.4758 41.288 24.6342 41.0049 24.9886 40.6353C25.3551 40.253 25.8893 39.8193 26.4934 39.4139C27.4794 38.7522 28.4337 38.3203 28.8505 38.3203C28.9488 38.3203 29.0181 38.3444 29.0489 38.395C29.2169 38.6607 28.3275 39.5758 27.1092 40.3937Z" fill="#C0C0C0"/>
</svg>
